<?xml version="1.0" encoding="UTF-8"?>
<svg xmlns="http://www.w3.org/2000/svg" width="1920" height="1080" viewBox="0 0 1920 1080">
  <!-- 10 x 7 squares = 9 x 6 OpenCV inner corners. -->
  <rect width="1920" height="1080" fill="#ffffff"/>
  <g transform="translate(360 120)">
    <rect x="0" y="0" width="1200" height="840" fill="#ffffff"/>
    <path fill="#000000" d="
      M0 0h120v120H0z M240 0h120v120H240z M480 0h120v120H480z M720 0h120v120H720z M960 0h120v120H960z
      M120 120h120v120H120z M360 120h120v120H360z M600 120h120v120H600z M840 120h120v120H840z M1080 120h120v120H1080z
      M0 240h120v120H0z M240 240h120v120H240z M480 240h120v120H480z M720 240h120v120H720z M960 240h120v120H960z
      M120 360h120v120H120z M360 360h120v120H360z M600 360h120v120H600z M840 360h120v120H840z M1080 360h120v120H1080z
      M0 480h120v120H0z M240 480h120v120H240z M480 480h120v120H480z M720 480h120v120H720z M960 480h120v120H960z
      M120 600h120v120H120z M360 600h120v120H360z M600 600h120v120H600z M840 600h120v120H840z M1080 600h120v120H1080z
      M0 720h120v120H0z M240 720h120v120H240z M480 720h120v120H480z M720 720h120v120H720z M960 720h120v120H960z
    "/>
  </g>
</svg>
